<svg width="197" height="141" viewBox="0 0 197 141" fill="none" xmlns="http://www.w3.org/2000/svg">
<rect x="57.7998" y="0.899902" width="24" height="24" rx="12" fill="#8E8EE7"/>
<path d="M64.0999 13.4399L67.2199 16.5599L75.0199 8.75994" stroke="#FBF5FF" stroke-width="2.64" stroke-linecap="round" stroke-linejoin="round"/>
<rect x="86.5999" y="0.899902" width="24" height="24" rx="12" fill="#EFEFEF"/>
<path d="M94.2704 16.7489L98.3597 12.6597M102.449 8.57041L98.3597 12.6597M98.3597 12.6597L94.2704 8.57041M98.3597 12.6597L102.449 16.7489" stroke="#9F9F9F" stroke-width="2.64" stroke-linecap="round" stroke-linejoin="round"/>
<rect x="115.4" y="0.899902" width="24" height="24" rx="12" fill="#8E8EE7"/>
<path d="M121.7 13.4399L124.82 16.5599L132.62 8.75994" stroke="#FBF5FF" stroke-width="2.64" stroke-linecap="round" stroke-linejoin="round"/>
<rect x="144.2" y="0.899902" width="24" height="24" rx="12" fill="#EFEFEF"/>
<path d="M151.871 16.7489L155.96 12.6597M160.049 8.57041L155.96 12.6597M155.96 12.6597L151.871 8.57041M155.96 12.6597L160.049 16.7489" stroke="#9F9F9F" stroke-width="2.64" stroke-linecap="round" stroke-linejoin="round"/>
<rect x="173" y="0.899902" width="24" height="24" rx="12" fill="#8E8EE7"/>
<path d="M179.3 13.4399L182.42 16.5599L190.22 8.75994" stroke="#FBF5FF" stroke-width="2.64" stroke-linecap="round" stroke-linejoin="round"/>
<rect x="57.7998" y="0.899902" width="24" height="24" rx="12" fill="#8E8EE7"/>
<path d="M64.0999 13.4399L67.2199 16.5599L75.0199 8.75994" stroke="#FBF5FF" stroke-width="2.64" stroke-linecap="round" stroke-linejoin="round"/>
<rect x="86.5999" y="0.899902" width="24" height="24" rx="12" fill="#EFEFEF"/>
<path d="M94.2704 16.7489L98.3597 12.6597M102.449 8.57041L98.3597 12.6597M98.3597 12.6597L94.2704 8.57041M98.3597 12.6597L102.449 16.7489" stroke="#9F9F9F" stroke-width="2.64" stroke-linecap="round" stroke-linejoin="round"/>
<rect x="115.4" y="0.899902" width="24" height="24" rx="12" fill="#8E8EE7"/>
<path d="M121.7 13.4399L124.82 16.5599L132.62 8.75994" stroke="#FBF5FF" stroke-width="2.64" stroke-linecap="round" stroke-linejoin="round"/>
<rect x="144.2" y="0.899902" width="24" height="24" rx="12" fill="#EFEFEF"/>
<path d="M151.871 16.7489L155.96 12.6597M160.049 8.57041L155.96 12.6597M155.96 12.6597L151.871 8.57041M155.96 12.6597L160.049 16.7489" stroke="#9F9F9F" stroke-width="2.64" stroke-linecap="round" stroke-linejoin="round"/>
<rect x="173" y="0.899902" width="24" height="24" rx="12" fill="#8E8EE7"/>
<path d="M179.3 13.4399L182.42 16.5599L190.22 8.75994" stroke="#FBF5FF" stroke-width="2.64" stroke-linecap="round" stroke-linejoin="round"/>
<rect x="0.199951" y="29.7002" width="24" height="24" rx="12" fill="#8E8EE7"/>
<path d="M6.49976 42.2402L9.61976 45.3602L17.4198 37.5602" stroke="#FBF5FF" stroke-width="2.64" stroke-linecap="round" stroke-linejoin="round"/>
<rect x="28.9998" y="29.7002" width="24" height="24" rx="12" fill="#8E8EE7"/>
<path d="M35.2998 42.2402L38.4198 45.3602L46.2198 37.5602" stroke="#FBF5FF" stroke-width="2.64" stroke-linecap="round" stroke-linejoin="round"/>
<rect x="57.7998" y="29.7002" width="24" height="24" rx="12" fill="#8E8EE7"/>
<path d="M64.0999 42.2402L67.2199 45.3602L75.0199 37.5602" stroke="#FBF5FF" stroke-width="2.64" stroke-linecap="round" stroke-linejoin="round"/>
<rect x="86.5999" y="29.7002" width="24" height="24" rx="12" fill="#8E8EE7"/>
<path d="M92.8997 42.2402L96.0197 45.3602L103.82 37.5602" stroke="#FBF5FF" stroke-width="2.64" stroke-linecap="round" stroke-linejoin="round"/>
<rect x="115.4" y="29.7002" width="24" height="24" rx="12" fill="#8E8EE7"/>
<path d="M121.7 42.2402L124.82 45.3602L132.62 37.5602" stroke="#FBF5FF" stroke-width="2.64" stroke-linecap="round" stroke-linejoin="round"/>
<rect x="144.2" y="29.7002" width="24" height="24" rx="12" fill="#8E8EE7"/>
<path d="M150.5 42.2402L153.62 45.3602L161.42 37.5602" stroke="#FBF5FF" stroke-width="2.64" stroke-linecap="round" stroke-linejoin="round"/>
<rect x="173" y="29.7002" width="24" height="24" rx="12" fill="#EFEFEF"/>
<path d="M180.671 45.5492L184.76 41.46M188.849 37.3707L184.76 41.46M184.76 41.46L180.671 37.3707M184.76 41.46L188.849 45.5492" stroke="#9F9F9F" stroke-width="2.64" stroke-linecap="round" stroke-linejoin="round"/>
<rect x="0.199951" y="58.5" width="24" height="24" rx="12" fill="#EFEFEF"/>
<path d="M7.87051 74.349L11.9598 70.2598M16.049 66.1705L11.9598 70.2598M11.9598 70.2598L7.87051 66.1705M11.9598 70.2598L16.049 74.349" stroke="#9F9F9F" stroke-width="2.64" stroke-linecap="round" stroke-linejoin="round"/>
<rect x="28.9998" y="58.5" width="24" height="24" rx="12" fill="#8E8EE7"/>
<path d="M35.2998 71.04L38.4198 74.16L46.2198 66.36" stroke="#FBF5FF" stroke-width="2.64" stroke-linecap="round" stroke-linejoin="round"/>
<rect x="57.7998" y="58.5" width="24" height="24" rx="12" fill="#EFEFEF"/>
<path d="M65.4706 74.349L69.5599 70.2598M73.6491 66.1705L69.5599 70.2598M69.5599 70.2598L65.4706 66.1705M69.5599 70.2598L73.6491 74.349" stroke="#9F9F9F" stroke-width="2.64" stroke-linecap="round" stroke-linejoin="round"/>
<rect x="86.5999" y="58.5" width="24" height="24" rx="12" fill="#8E8EE7"/>
<path d="M92.8997 71.04L96.0197 74.16L103.82 66.36" stroke="#FBF5FF" stroke-width="2.64" stroke-linecap="round" stroke-linejoin="round"/>
<rect x="115.4" y="58.5" width="24" height="24" rx="12" fill="#EFEFEF"/>
<path d="M123.07 74.349L127.16 70.2598M131.249 66.1705L127.16 70.2598M127.16 70.2598L123.07 66.1705M127.16 70.2598L131.249 74.349" stroke="#9F9F9F" stroke-width="2.64" stroke-linecap="round" stroke-linejoin="round"/>
<rect x="144.2" y="58.5" width="24" height="24" rx="12" fill="#EFEFEF"/>
<path d="M151.871 74.349L155.96 70.2598M160.049 66.1705L155.96 70.2598M155.96 70.2598L151.871 66.1705M155.96 70.2598L160.049 74.349" stroke="#9F9F9F" stroke-width="2.64" stroke-linecap="round" stroke-linejoin="round"/>
<rect x="173" y="58.5" width="24" height="24" rx="12" fill="#8E8EE7"/>
<path d="M179.3 71.04L182.42 74.16L190.22 66.36" stroke="#FBF5FF" stroke-width="2.64" stroke-linecap="round" stroke-linejoin="round"/>
<rect x="0.199951" y="87.2998" width="24" height="24" rx="12" fill="#8E8EE7"/>
<path d="M6.49976 99.8403L9.61976 102.96L17.4198 95.1603" stroke="#FBF5FF" stroke-width="2.64" stroke-linecap="round" stroke-linejoin="round"/>
<rect x="28.9998" y="87.2998" width="24" height="24" rx="12" fill="#EFEFEF"/>
<path d="M36.6706 103.149L40.7598 99.0601M44.8491 94.9708L40.7598 99.0601M40.7598 99.0601L36.6706 94.9708M40.7598 99.0601L44.8491 103.149" stroke="#9F9F9F" stroke-width="2.64" stroke-linecap="round" stroke-linejoin="round"/>
<rect x="57.7998" y="87.2998" width="24" height="24" rx="12" fill="#EFEFEF"/>
<path d="M65.4706 103.149L69.5599 99.0601M73.6491 94.9708L69.5599 99.0601M69.5599 99.0601L65.4706 94.9708M69.5599 99.0601L73.6491 103.149" stroke="#9F9F9F" stroke-width="2.64" stroke-linecap="round" stroke-linejoin="round"/>
<rect x="86.5999" y="87.2998" width="24" height="24" rx="12" fill="#EFEFEF"/>
<path d="M94.2704 103.149L98.3597 99.0601M102.449 94.9708L98.3597 99.0601M98.3597 99.0601L94.2704 94.9708M98.3597 99.0601L102.449 103.149" stroke="#9F9F9F" stroke-width="2.64" stroke-linecap="round" stroke-linejoin="round"/>
<rect x="115.4" y="87.2998" width="24" height="24" rx="12" fill="#EFEFEF"/>
<path d="M123.07 103.149L127.16 99.0601M131.249 94.9708L127.16 99.0601M127.16 99.0601L123.07 94.9708M127.16 99.0601L131.249 103.149" stroke="#9F9F9F" stroke-width="2.64" stroke-linecap="round" stroke-linejoin="round"/>
<rect x="144.2" y="87.2998" width="24" height="24" rx="12" fill="#EFEFEF"/>
<path d="M151.871 103.149L155.96 99.0601M160.049 94.9708L155.96 99.0601M155.96 99.0601L151.871 94.9708M155.96 99.0601L160.049 103.149" stroke="#9F9F9F" stroke-width="2.64" stroke-linecap="round" stroke-linejoin="round"/>
<rect x="173" y="87.2998" width="24" height="24" rx="12" fill="#8E8EE7"/>
<path d="M179.3 99.8403L182.42 102.96L190.22 95.1603" stroke="#FBF5FF" stroke-width="2.64" stroke-linecap="round" stroke-linejoin="round"/>
<rect x="0.799951" y="116.7" width="22.8" height="22.8" rx="11.4" stroke="#EFEFEF" stroke-width="1.2"/>
<path d="M5.82374 131.327L8.71827 128.28C9.10108 127.877 9.3921 127.553 9.59132 127.307C9.79444 127.057 9.94679 126.817 10.0483 126.586C10.1538 126.352 10.2066 126.108 10.2066 125.854C10.2066 125.573 10.1323 125.323 9.9839 125.104C9.83546 124.885 9.63233 124.715 9.37452 124.594C9.12062 124.473 8.83546 124.413 8.51905 124.413C8.18702 124.413 7.89601 124.479 7.64601 124.612C7.39601 124.745 7.20265 124.932 7.06593 125.174C6.93312 125.417 6.86671 125.694 6.86671 126.006H5.87062C5.86671 125.514 5.97999 125.079 6.21046 124.7C6.44483 124.321 6.7671 124.026 7.17726 123.815C7.58741 123.604 8.0464 123.499 8.55421 123.499C9.05812 123.499 9.50929 123.602 9.90772 123.809C10.3101 124.016 10.6245 124.299 10.8511 124.659C11.0776 125.018 11.1909 125.417 11.1909 125.854C11.1909 126.178 11.1323 126.489 11.0151 126.786C10.898 127.079 10.7007 127.405 10.4233 127.764C10.1499 128.12 9.75733 128.561 9.24562 129.088L7.3003 131.092V131.163H11.3433V132.1H5.83546L5.82374 131.327ZM15.375 132.217C14.8281 132.217 14.3203 132.094 13.8516 131.848C13.3867 131.598 13.0039 131.174 12.7031 130.577C12.4062 129.975 12.2578 129.178 12.2578 128.186C12.2578 127.198 12.3867 126.352 12.6445 125.649C12.9062 124.946 13.2773 124.413 13.7578 124.049C14.2422 123.682 14.8164 123.499 15.4805 123.499C15.9687 123.499 16.4062 123.592 16.793 123.78C17.1836 123.967 17.5019 124.231 17.748 124.571C17.998 124.911 18.1601 125.303 18.2344 125.749H17.1914C17.0859 125.354 16.8867 125.038 16.5937 124.799C16.3047 124.557 15.9336 124.436 15.4805 124.436C15.0195 124.436 14.6211 124.565 14.2851 124.823C13.9531 125.077 13.6973 125.446 13.5176 125.93C13.3418 126.415 13.2539 126.995 13.2539 127.67H13.3594C13.6094 127.315 13.9219 127.04 14.2969 126.844C14.6719 126.645 15.0859 126.545 15.5391 126.545C16.0391 126.545 16.5 126.667 16.9219 126.909C17.3476 127.151 17.6836 127.487 17.9297 127.917C18.1797 128.342 18.3047 128.823 18.3047 129.358C18.3047 129.885 18.1816 130.368 17.9355 130.805C17.6933 131.239 17.3496 131.583 16.9043 131.836C16.459 132.09 15.9492 132.217 15.375 132.217ZM15.3516 131.292C15.7109 131.292 16.0371 131.206 16.3301 131.034C16.623 130.862 16.8535 130.629 17.0215 130.336C17.1933 130.04 17.2812 129.717 17.2851 129.37C17.2812 129.022 17.1973 128.704 17.0332 128.415C16.8691 128.125 16.6426 127.897 16.3535 127.729C16.0644 127.557 15.7383 127.471 15.375 127.471C15.0117 127.471 14.6797 127.559 14.3789 127.735C14.0781 127.911 13.8398 128.147 13.6641 128.444C13.4883 128.737 13.3984 129.049 13.3945 129.381C13.3945 129.713 13.4785 130.026 13.6465 130.319C13.8183 130.612 14.0527 130.848 14.3496 131.028C14.6504 131.204 14.9844 131.292 15.3516 131.292Z" fill="#EFEFEF"/>
<rect x="29.5998" y="116.7" width="22.8" height="22.8" rx="11.4" stroke="#EFEFEF" stroke-width="1.2"/>
<path d="M36.1929 131.327L39.0874 128.28C39.4702 127.877 39.7612 127.553 39.9605 127.307C40.1636 127.057 40.3159 126.817 40.4175 126.586C40.523 126.352 40.5757 126.108 40.5757 125.854C40.5757 125.573 40.5015 125.323 40.353 125.104C40.2046 124.885 40.0015 124.715 39.7437 124.594C39.4898 124.473 39.2046 124.413 38.8882 124.413C38.5562 124.413 38.2651 124.479 38.0151 124.612C37.7651 124.745 37.5718 124.932 37.4351 125.174C37.3023 125.417 37.2358 125.694 37.2358 126.006H36.2398C36.2358 125.514 36.3491 125.079 36.5796 124.7C36.814 124.321 37.1362 124.026 37.5464 123.815C37.9566 123.604 38.4155 123.499 38.9233 123.499C39.4273 123.499 39.8784 123.602 40.2769 123.809C40.6792 124.016 40.9937 124.299 41.2202 124.659C41.4468 125.018 41.5601 125.417 41.5601 125.854C41.5601 126.178 41.5015 126.489 41.3843 126.786C41.2671 127.079 41.0698 127.405 40.7925 127.764C40.5191 128.12 40.1265 128.561 39.6148 129.088L37.6694 131.092V131.163H41.7124V132.1H36.2046L36.1929 131.327ZM46.9277 124.612V124.553H42.4394V123.616H48.0176V124.6L44.1387 132.1H43.0371L46.9277 124.612Z" fill="#EFEFEF"/>
<rect x="58.3998" y="116.7" width="22.8" height="22.8" rx="11.4" stroke="#EFEFEF" stroke-width="1.2"/>
<path d="M63.4649 131.327L66.3594 128.28C66.7422 127.877 67.0332 127.553 67.2324 127.307C67.4356 127.057 67.5879 126.817 67.6895 126.586C67.7949 126.352 67.8477 126.108 67.8477 125.854C67.8477 125.573 67.7734 125.323 67.625 125.104C67.4766 124.885 67.2734 124.715 67.0156 124.594C66.7617 124.473 66.4766 124.413 66.1602 124.413C65.8281 124.413 65.5371 124.479 65.2871 124.612C65.0371 124.745 64.8438 124.932 64.707 125.174C64.5742 125.417 64.5078 125.694 64.5078 126.006H63.5117C63.5078 125.514 63.6211 125.079 63.8516 124.7C64.0859 124.321 64.4082 124.026 64.8184 123.815C65.2285 123.604 65.6875 123.499 66.1953 123.499C66.6992 123.499 67.1504 123.602 67.5488 123.809C67.9512 124.016 68.2656 124.299 68.4922 124.659C68.7188 125.018 68.832 125.417 68.832 125.854C68.832 126.178 68.7734 126.489 68.6563 126.786C68.5391 127.079 68.3418 127.405 68.0645 127.764C67.791 128.12 67.3984 128.561 66.8867 129.088L64.9414 131.092V131.163H68.9844V132.1H63.4766L63.4649 131.327ZM72.8755 132.217C72.2895 132.217 71.7661 132.118 71.3052 131.918C70.8481 131.715 70.4927 131.434 70.2388 131.075C69.9849 130.715 69.8599 130.307 69.8638 129.85C69.8599 129.491 69.9321 129.157 70.0806 128.848C70.2329 128.536 70.4419 128.278 70.7075 128.075C70.9731 127.872 71.2661 127.745 71.5864 127.694V127.647C71.3091 127.581 71.0649 127.458 70.854 127.278C70.6431 127.094 70.479 126.87 70.3618 126.604C70.2485 126.338 70.1919 126.053 70.1919 125.749C70.1919 125.323 70.3071 124.938 70.5376 124.594C70.772 124.25 71.0923 123.983 71.4985 123.792C71.9087 123.596 72.3677 123.499 72.8755 123.499C73.3833 123.499 73.8403 123.596 74.2466 123.792C74.6567 123.983 74.979 124.25 75.2134 124.594C75.4477 124.934 75.5669 125.319 75.5708 125.749C75.5669 126.053 75.5044 126.338 75.3833 126.604C75.2661 126.87 75.102 127.094 74.8911 127.278C74.6802 127.458 74.438 127.581 74.1645 127.647V127.694C74.4809 127.745 74.77 127.872 75.0317 128.075C75.2974 128.278 75.5063 128.536 75.6587 128.848C75.8149 129.157 75.895 129.491 75.8989 129.85C75.895 130.307 75.7642 130.715 75.5063 131.075C75.2485 131.434 74.8911 131.715 74.4341 131.918C73.977 132.118 73.4575 132.217 72.8755 132.217ZM72.8755 131.292C73.2739 131.292 73.6216 131.229 73.9184 131.104C74.2153 130.979 74.4438 130.803 74.604 130.577C74.7642 130.35 74.8442 130.088 74.8442 129.792C74.8442 129.483 74.7583 129.206 74.5864 128.959C74.4184 128.709 74.1841 128.514 73.8833 128.374C73.5864 128.233 73.2505 128.163 72.8755 128.163C72.5005 128.163 72.1626 128.233 71.8618 128.374C71.561 128.514 71.3267 128.709 71.1587 128.959C70.9907 129.206 70.9106 129.483 70.9184 129.792C70.9106 130.088 70.9849 130.35 71.1411 130.577C71.3013 130.803 71.5298 130.979 71.8267 131.104C72.1235 131.229 72.4731 131.292 72.8755 131.292ZM72.8755 127.272C73.1919 127.272 73.477 127.211 73.7309 127.09C73.9849 126.969 74.1821 126.799 74.3227 126.581C74.4673 126.362 74.5395 126.112 74.5395 125.831C74.5395 125.553 74.4692 125.307 74.3286 125.092C74.1919 124.877 73.9966 124.711 73.7427 124.594C73.4927 124.473 73.2036 124.413 72.8755 124.413C72.5434 124.413 72.2505 124.473 71.9966 124.594C71.7466 124.711 71.5532 124.877 71.4165 125.092C71.2798 125.307 71.2114 125.553 71.2114 125.831C71.2114 126.112 71.2817 126.362 71.4224 126.581C71.5669 126.799 71.7642 126.969 72.0142 127.09C72.2681 127.211 72.5552 127.272 72.8755 127.272Z" fill="#EFEFEF"/>
<rect x="87.1999" y="116.7" width="22.8" height="22.8" rx="11.4" stroke="#EFEFEF" stroke-width="1.2"/>
<path d="M92.2239 131.327L95.1184 128.28C95.5012 127.877 95.7922 127.553 95.9915 127.307C96.1946 127.057 96.3469 126.817 96.4485 126.586C96.554 126.352 96.6067 126.108 96.6067 125.854C96.6067 125.573 96.5325 125.323 96.384 125.104C96.2356 124.885 96.0325 124.715 95.7747 124.594C95.5208 124.473 95.2356 124.413 94.9192 124.413C94.5872 124.413 94.2962 124.479 94.0462 124.612C93.7962 124.745 93.6028 124.932 93.4661 125.174C93.3333 125.417 93.2669 125.694 93.2669 126.006H92.2708C92.2669 125.514 92.3801 125.079 92.6106 124.7C92.845 124.321 93.1672 124.026 93.5774 123.815C93.9876 123.604 94.4465 123.499 94.9544 123.499C95.4583 123.499 95.9094 123.602 96.3079 123.809C96.7102 124.016 97.0247 124.299 97.2512 124.659C97.4778 125.018 97.5911 125.417 97.5911 125.854C97.5911 126.178 97.5325 126.489 97.4153 126.786C97.2981 127.079 97.1008 127.405 96.8235 127.764C96.5501 128.12 96.1575 128.561 95.6458 129.088L93.7004 131.092V131.163H97.7434V132.1H92.2356L92.2239 131.327ZM101.599 123.499C102.142 123.499 102.646 123.624 103.111 123.874C103.576 124.12 103.957 124.542 104.254 125.139C104.554 125.737 104.705 126.53 104.705 127.518C104.705 128.51 104.574 129.36 104.312 130.067C104.054 130.77 103.683 131.305 103.199 131.672C102.718 132.036 102.146 132.217 101.482 132.217C100.994 132.217 100.554 132.124 100.164 131.936C99.7732 131.745 99.4529 131.479 99.2029 131.139C98.9568 130.799 98.7986 130.405 98.7283 129.956H99.7712C99.8689 130.354 100.064 130.674 100.357 130.917C100.65 131.159 101.025 131.28 101.482 131.28C101.943 131.28 102.34 131.153 102.672 130.899C103.008 130.641 103.265 130.268 103.445 129.78C103.625 129.292 103.717 128.706 103.72 128.022H103.603C103.353 128.377 103.041 128.655 102.666 128.854C102.291 129.049 101.881 129.147 101.435 129.147C100.931 129.147 100.467 129.028 100.041 128.79C99.615 128.547 99.2771 128.213 99.0271 127.788C98.781 127.362 98.6579 126.881 98.6579 126.346C98.6579 125.823 98.779 125.344 99.0212 124.911C99.2673 124.477 99.613 124.133 100.058 123.879C100.504 123.625 101.017 123.499 101.599 123.499ZM101.623 124.424C101.263 124.424 100.935 124.51 100.638 124.682C100.345 124.85 100.113 125.079 99.9412 125.368C99.7732 125.657 99.6892 125.971 99.6892 126.311C99.6892 126.667 99.7693 126.991 99.9294 127.284C100.09 127.573 100.314 127.801 100.603 127.969C100.892 128.137 101.22 128.221 101.588 128.221C101.947 128.221 102.277 128.133 102.578 127.958C102.879 127.778 103.117 127.542 103.293 127.249C103.468 126.952 103.556 126.639 103.556 126.311C103.556 125.987 103.472 125.68 103.304 125.391C103.136 125.098 102.904 124.864 102.607 124.688C102.314 124.512 101.986 124.424 101.623 124.424Z" fill="#EFEFEF"/>
<rect x="116" y="116.7" width="22.8" height="22.8" rx="11.4" stroke="#EFEFEF" stroke-width="1.2"/>
<path d="M124.389 132.217C123.831 132.217 123.331 132.124 122.889 131.936C122.452 131.749 122.104 131.485 121.846 131.145C121.592 130.805 121.456 130.413 121.436 129.967H122.502C122.522 130.229 122.616 130.459 122.784 130.659C122.956 130.858 123.18 131.012 123.458 131.122C123.735 131.227 124.042 131.28 124.377 131.28C124.745 131.28 125.075 131.217 125.368 131.092C125.665 130.963 125.895 130.788 126.059 130.565C126.227 130.338 126.311 130.081 126.311 129.792C126.311 129.479 126.229 129.204 126.065 128.965C125.905 128.727 125.67 128.542 125.362 128.409C125.053 128.276 124.682 128.209 124.249 128.209H123.557V127.284H124.249C124.588 127.284 124.891 127.223 125.157 127.102C125.422 126.981 125.627 126.811 125.772 126.592C125.92 126.374 125.995 126.12 125.995 125.831C125.995 125.553 125.928 125.307 125.795 125.092C125.667 124.877 125.483 124.711 125.245 124.594C125.006 124.473 124.729 124.413 124.413 124.413C124.108 124.413 123.823 124.467 123.557 124.577C123.292 124.686 123.075 124.842 122.907 125.045C122.739 125.245 122.647 125.479 122.631 125.749H121.612C121.631 125.311 121.768 124.922 122.022 124.583C122.276 124.239 122.614 123.973 123.036 123.786C123.458 123.594 123.92 123.499 124.424 123.499C124.948 123.499 125.405 123.602 125.795 123.809C126.19 124.012 126.493 124.288 126.704 124.635C126.915 124.983 127.018 125.362 127.014 125.772C127.018 126.249 126.891 126.657 126.633 126.997C126.375 127.336 126.022 127.569 125.573 127.694V127.752C125.936 127.811 126.25 127.934 126.516 128.122C126.786 128.305 126.991 128.542 127.131 128.831C127.276 129.116 127.346 129.436 127.342 129.792C127.346 130.249 127.219 130.663 126.961 131.034C126.704 131.401 126.348 131.69 125.895 131.901C125.446 132.112 124.944 132.217 124.389 132.217ZM131.163 132.217C130.538 132.217 130.003 132.047 129.558 131.708C129.116 131.368 128.778 130.872 128.544 130.219C128.313 129.567 128.198 128.78 128.198 127.858C128.198 126.948 128.315 126.167 128.55 125.514C128.784 124.858 129.124 124.358 129.569 124.014C130.015 123.67 130.546 123.499 131.163 123.499C131.78 123.499 132.312 123.67 132.757 124.014C133.202 124.358 133.542 124.858 133.776 125.514C134.011 126.167 134.128 126.948 134.128 127.858C134.128 128.78 134.011 129.567 133.776 130.219C133.546 130.872 133.208 131.368 132.763 131.708C132.317 132.047 131.784 132.217 131.163 132.217ZM131.163 131.28C131.569 131.28 131.917 131.147 132.206 130.881C132.495 130.616 132.716 130.227 132.868 129.715C133.02 129.204 133.097 128.584 133.097 127.858C133.097 127.131 133.02 126.51 132.868 125.995C132.716 125.479 132.495 125.086 132.206 124.817C131.917 124.547 131.569 124.413 131.163 124.413C130.757 124.413 130.407 124.547 130.114 124.817C129.825 125.086 129.603 125.479 129.446 125.995C129.294 126.51 129.218 127.131 129.218 127.858C129.218 128.584 129.294 129.204 129.446 129.715C129.599 130.227 129.819 130.616 130.108 130.881C130.401 131.147 130.753 131.28 131.163 131.28Z" fill="#EFEFEF"/>
<rect x="144.8" y="116.7" width="22.8" height="22.8" rx="11.4" stroke="#EFEFEF" stroke-width="1.2"/>
<path d="M154.333 132.217C153.774 132.217 153.274 132.124 152.833 131.936C152.395 131.749 152.047 131.485 151.79 131.145C151.536 130.805 151.399 130.413 151.379 129.967H152.446C152.465 130.229 152.559 130.459 152.727 130.659C152.899 130.858 153.124 131.012 153.401 131.122C153.678 131.227 153.985 131.28 154.321 131.28C154.688 131.28 155.018 131.217 155.311 131.092C155.608 130.963 155.838 130.788 156.002 130.565C156.17 130.338 156.254 130.081 156.254 129.792C156.254 129.479 156.172 129.204 156.008 128.965C155.848 128.727 155.614 128.542 155.305 128.409C154.997 128.276 154.625 128.209 154.192 128.209H153.5V127.284H154.192C154.532 127.284 154.834 127.223 155.1 127.102C155.366 126.981 155.571 126.811 155.715 126.592C155.864 126.374 155.938 126.12 155.938 125.831C155.938 125.553 155.872 125.307 155.739 125.092C155.61 124.877 155.426 124.711 155.188 124.594C154.95 124.473 154.672 124.413 154.356 124.413C154.051 124.413 153.766 124.467 153.5 124.577C153.235 124.686 153.018 124.842 152.85 125.045C152.682 125.245 152.59 125.479 152.575 125.749H151.555C151.575 125.311 151.711 124.922 151.965 124.583C152.219 124.239 152.557 123.973 152.979 123.786C153.401 123.594 153.864 123.499 154.368 123.499C154.891 123.499 155.348 123.602 155.739 123.809C156.133 124.012 156.436 124.288 156.647 124.635C156.858 124.983 156.961 125.362 156.958 125.772C156.961 126.249 156.834 126.657 156.577 126.997C156.319 127.336 155.965 127.569 155.516 127.694V127.752C155.879 127.811 156.194 127.934 156.459 128.122C156.729 128.305 156.934 128.542 157.075 128.831C157.219 129.116 157.29 129.436 157.286 129.792C157.29 130.249 157.163 130.663 156.905 131.034C156.647 131.401 156.292 131.69 155.838 131.901C155.389 132.112 154.887 132.217 154.333 132.217ZM161.329 132.1H160.263V124.717H160.216L158.153 126.088V125.022L160.263 123.616H161.329V132.1Z" fill="#EFEFEF"/>
<rect x="0.799951" y="116.7" width="22.8" height="22.8" rx="11.4" stroke="#EFEFEF" stroke-width="1.2"/>
<path d="M5.82374 131.327L8.71827 128.28C9.10108 127.877 9.3921 127.553 9.59132 127.307C9.79444 127.057 9.94679 126.817 10.0483 126.586C10.1538 126.352 10.2066 126.108 10.2066 125.854C10.2066 125.573 10.1323 125.323 9.9839 125.104C9.83546 124.885 9.63233 124.715 9.37452 124.594C9.12062 124.473 8.83546 124.413 8.51905 124.413C8.18702 124.413 7.89601 124.479 7.64601 124.612C7.39601 124.745 7.20265 124.932 7.06593 125.174C6.93312 125.417 6.86671 125.694 6.86671 126.006H5.87062C5.86671 125.514 5.97999 125.079 6.21046 124.7C6.44483 124.321 6.7671 124.026 7.17726 123.815C7.58741 123.604 8.0464 123.499 8.55421 123.499C9.05812 123.499 9.50929 123.602 9.90772 123.809C10.3101 124.016 10.6245 124.299 10.8511 124.659C11.0776 125.018 11.1909 125.417 11.1909 125.854C11.1909 126.178 11.1323 126.489 11.0151 126.786C10.898 127.079 10.7007 127.405 10.4233 127.764C10.1499 128.12 9.75733 128.561 9.24562 129.088L7.3003 131.092V131.163H11.3433V132.1H5.83546L5.82374 131.327ZM15.375 132.217C14.8281 132.217 14.3203 132.094 13.8516 131.848C13.3867 131.598 13.0039 131.174 12.7031 130.577C12.4062 129.975 12.2578 129.178 12.2578 128.186C12.2578 127.198 12.3867 126.352 12.6445 125.649C12.9062 124.946 13.2773 124.413 13.7578 124.049C14.2422 123.682 14.8164 123.499 15.4805 123.499C15.9687 123.499 16.4062 123.592 16.793 123.78C17.1836 123.967 17.5019 124.231 17.748 124.571C17.998 124.911 18.1601 125.303 18.2344 125.749H17.1914C17.0859 125.354 16.8867 125.038 16.5937 124.799C16.3047 124.557 15.9336 124.436 15.4805 124.436C15.0195 124.436 14.6211 124.565 14.2851 124.823C13.9531 125.077 13.6973 125.446 13.5176 125.93C13.3418 126.415 13.2539 126.995 13.2539 127.67H13.3594C13.6094 127.315 13.9219 127.04 14.2969 126.844C14.6719 126.645 15.0859 126.545 15.5391 126.545C16.0391 126.545 16.5 126.667 16.9219 126.909C17.3476 127.151 17.6836 127.487 17.9297 127.917C18.1797 128.342 18.3047 128.823 18.3047 129.358C18.3047 129.885 18.1816 130.368 17.9355 130.805C17.6933 131.239 17.3496 131.583 16.9043 131.836C16.459 132.09 15.9492 132.217 15.375 132.217ZM15.3516 131.292C15.7109 131.292 16.0371 131.206 16.3301 131.034C16.623 130.862 16.8535 130.629 17.0215 130.336C17.1933 130.04 17.2812 129.717 17.2851 129.37C17.2812 129.022 17.1973 128.704 17.0332 128.415C16.8691 128.125 16.6426 127.897 16.3535 127.729C16.0644 127.557 15.7383 127.471 15.375 127.471C15.0117 127.471 14.6797 127.559 14.3789 127.735C14.0781 127.911 13.8398 128.147 13.6641 128.444C13.4883 128.737 13.3984 129.049 13.3945 129.381C13.3945 129.713 13.4785 130.026 13.6465 130.319C13.8183 130.612 14.0527 130.848 14.3496 131.028C14.6504 131.204 14.9844 131.292 15.3516 131.292Z" fill="#EFEFEF"/>
<rect x="29.5998" y="116.7" width="22.8" height="22.8" rx="11.4" stroke="#EFEFEF" stroke-width="1.2"/>
<path d="M36.1929 131.327L39.0874 128.28C39.4702 127.877 39.7612 127.553 39.9605 127.307C40.1636 127.057 40.3159 126.817 40.4175 126.586C40.523 126.352 40.5757 126.108 40.5757 125.854C40.5757 125.573 40.5015 125.323 40.353 125.104C40.2046 124.885 40.0015 124.715 39.7437 124.594C39.4898 124.473 39.2046 124.413 38.8882 124.413C38.5562 124.413 38.2651 124.479 38.0151 124.612C37.7651 124.745 37.5718 124.932 37.4351 125.174C37.3023 125.417 37.2358 125.694 37.2358 126.006H36.2398C36.2358 125.514 36.3491 125.079 36.5796 124.7C36.814 124.321 37.1362 124.026 37.5464 123.815C37.9566 123.604 38.4155 123.499 38.9233 123.499C39.4273 123.499 39.8784 123.602 40.2769 123.809C40.6792 124.016 40.9937 124.299 41.2202 124.659C41.4468 125.018 41.5601 125.417 41.5601 125.854C41.5601 126.178 41.5015 126.489 41.3843 126.786C41.2671 127.079 41.0698 127.405 40.7925 127.764C40.5191 128.12 40.1265 128.561 39.6148 129.088L37.6694 131.092V131.163H41.7124V132.1H36.2046L36.1929 131.327ZM46.9277 124.612V124.553H42.4394V123.616H48.0176V124.6L44.1387 132.1H43.0371L46.9277 124.612Z" fill="#EFEFEF"/>
<rect x="58.3998" y="116.7" width="22.8" height="22.8" rx="11.4" stroke="#EFEFEF" stroke-width="1.2"/>
<path d="M63.4649 131.327L66.3594 128.28C66.7422 127.877 67.0332 127.553 67.2324 127.307C67.4356 127.057 67.5879 126.817 67.6895 126.586C67.7949 126.352 67.8477 126.108 67.8477 125.854C67.8477 125.573 67.7734 125.323 67.625 125.104C67.4766 124.885 67.2734 124.715 67.0156 124.594C66.7617 124.473 66.4766 124.413 66.1602 124.413C65.8281 124.413 65.5371 124.479 65.2871 124.612C65.0371 124.745 64.8438 124.932 64.707 125.174C64.5742 125.417 64.5078 125.694 64.5078 126.006H63.5117C63.5078 125.514 63.6211 125.079 63.8516 124.7C64.0859 124.321 64.4082 124.026 64.8184 123.815C65.2285 123.604 65.6875 123.499 66.1953 123.499C66.6992 123.499 67.1504 123.602 67.5488 123.809C67.9512 124.016 68.2656 124.299 68.4922 124.659C68.7188 125.018 68.832 125.417 68.832 125.854C68.832 126.178 68.7734 126.489 68.6563 126.786C68.5391 127.079 68.3418 127.405 68.0645 127.764C67.791 128.12 67.3984 128.561 66.8867 129.088L64.9414 131.092V131.163H68.9844V132.1H63.4766L63.4649 131.327ZM72.8755 132.217C72.2895 132.217 71.7661 132.118 71.3052 131.918C70.8481 131.715 70.4927 131.434 70.2388 131.075C69.9849 130.715 69.8599 130.307 69.8638 129.85C69.8599 129.491 69.9321 129.157 70.0806 128.848C70.2329 128.536 70.4419 128.278 70.7075 128.075C70.9731 127.872 71.2661 127.745 71.5864 127.694V127.647C71.3091 127.581 71.0649 127.458 70.854 127.278C70.6431 127.094 70.479 126.87 70.3618 126.604C70.2485 126.338 70.1919 126.053 70.1919 125.749C70.1919 125.323 70.3071 124.938 70.5376 124.594C70.772 124.25 71.0923 123.983 71.4985 123.792C71.9087 123.596 72.3677 123.499 72.8755 123.499C73.3833 123.499 73.8403 123.596 74.2466 123.792C74.6567 123.983 74.979 124.25 75.2134 124.594C75.4477 124.934 75.5669 125.319 75.5708 125.749C75.5669 126.053 75.5044 126.338 75.3833 126.604C75.2661 126.87 75.102 127.094 74.8911 127.278C74.6802 127.458 74.438 127.581 74.1645 127.647V127.694C74.4809 127.745 74.77 127.872 75.0317 128.075C75.2974 128.278 75.5063 128.536 75.6587 128.848C75.8149 129.157 75.895 129.491 75.8989 129.85C75.895 130.307 75.7642 130.715 75.5063 131.075C75.2485 131.434 74.8911 131.715 74.4341 131.918C73.977 132.118 73.4575 132.217 72.8755 132.217ZM72.8755 131.292C73.2739 131.292 73.6216 131.229 73.9184 131.104C74.2153 130.979 74.4438 130.803 74.604 130.577C74.7642 130.35 74.8442 130.088 74.8442 129.792C74.8442 129.483 74.7583 129.206 74.5864 128.959C74.4184 128.709 74.1841 128.514 73.8833 128.374C73.5864 128.233 73.2505 128.163 72.8755 128.163C72.5005 128.163 72.1626 128.233 71.8618 128.374C71.561 128.514 71.3267 128.709 71.1587 128.959C70.9907 129.206 70.9106 129.483 70.9184 129.792C70.9106 130.088 70.9849 130.35 71.1411 130.577C71.3013 130.803 71.5298 130.979 71.8267 131.104C72.1235 131.229 72.4731 131.292 72.8755 131.292ZM72.8755 127.272C73.1919 127.272 73.477 127.211 73.7309 127.09C73.9849 126.969 74.1821 126.799 74.3227 126.581C74.4673 126.362 74.5395 126.112 74.5395 125.831C74.5395 125.553 74.4692 125.307 74.3286 125.092C74.1919 124.877 73.9966 124.711 73.7427 124.594C73.4927 124.473 73.2036 124.413 72.8755 124.413C72.5434 124.413 72.2505 124.473 71.9966 124.594C71.7466 124.711 71.5532 124.877 71.4165 125.092C71.2798 125.307 71.2114 125.553 71.2114 125.831C71.2114 126.112 71.2817 126.362 71.4224 126.581C71.5669 126.799 71.7642 126.969 72.0142 127.09C72.2681 127.211 72.5552 127.272 72.8755 127.272Z" fill="#EFEFEF"/>
<rect x="87.1999" y="116.7" width="22.8" height="22.8" rx="11.4" stroke="#EFEFEF" stroke-width="1.2"/>
<path d="M92.2239 131.327L95.1184 128.28C95.5012 127.877 95.7922 127.553 95.9915 127.307C96.1946 127.057 96.3469 126.817 96.4485 126.586C96.554 126.352 96.6067 126.108 96.6067 125.854C96.6067 125.573 96.5325 125.323 96.384 125.104C96.2356 124.885 96.0325 124.715 95.7747 124.594C95.5208 124.473 95.2356 124.413 94.9192 124.413C94.5872 124.413 94.2962 124.479 94.0462 124.612C93.7962 124.745 93.6028 124.932 93.4661 125.174C93.3333 125.417 93.2669 125.694 93.2669 126.006H92.2708C92.2669 125.514 92.3801 125.079 92.6106 124.7C92.845 124.321 93.1672 124.026 93.5774 123.815C93.9876 123.604 94.4465 123.499 94.9544 123.499C95.4583 123.499 95.9094 123.602 96.3079 123.809C96.7102 124.016 97.0247 124.299 97.2512 124.659C97.4778 125.018 97.5911 125.417 97.5911 125.854C97.5911 126.178 97.5325 126.489 97.4153 126.786C97.2981 127.079 97.1008 127.405 96.8235 127.764C96.5501 128.12 96.1575 128.561 95.6458 129.088L93.7004 131.092V131.163H97.7434V132.1H92.2356L92.2239 131.327ZM101.599 123.499C102.142 123.499 102.646 123.624 103.111 123.874C103.576 124.12 103.957 124.542 104.254 125.139C104.554 125.737 104.705 126.53 104.705 127.518C104.705 128.51 104.574 129.36 104.312 130.067C104.054 130.77 103.683 131.305 103.199 131.672C102.718 132.036 102.146 132.217 101.482 132.217C100.994 132.217 100.554 132.124 100.164 131.936C99.7732 131.745 99.4529 131.479 99.2029 131.139C98.9568 130.799 98.7986 130.405 98.7283 129.956H99.7712C99.8689 130.354 100.064 130.674 100.357 130.917C100.65 131.159 101.025 131.28 101.482 131.28C101.943 131.28 102.34 131.153 102.672 130.899C103.008 130.641 103.265 130.268 103.445 129.78C103.625 129.292 103.717 128.706 103.72 128.022H103.603C103.353 128.377 103.041 128.655 102.666 128.854C102.291 129.049 101.881 129.147 101.435 129.147C100.931 129.147 100.467 129.028 100.041 128.79C99.615 128.547 99.2771 128.213 99.0271 127.788C98.781 127.362 98.6579 126.881 98.6579 126.346C98.6579 125.823 98.779 125.344 99.0212 124.911C99.2673 124.477 99.613 124.133 100.058 123.879C100.504 123.625 101.017 123.499 101.599 123.499ZM101.623 124.424C101.263 124.424 100.935 124.51 100.638 124.682C100.345 124.85 100.113 125.079 99.9412 125.368C99.7732 125.657 99.6892 125.971 99.6892 126.311C99.6892 126.667 99.7693 126.991 99.9294 127.284C100.09 127.573 100.314 127.801 100.603 127.969C100.892 128.137 101.22 128.221 101.588 128.221C101.947 128.221 102.277 128.133 102.578 127.958C102.879 127.778 103.117 127.542 103.293 127.249C103.468 126.952 103.556 126.639 103.556 126.311C103.556 125.987 103.472 125.68 103.304 125.391C103.136 125.098 102.904 124.864 102.607 124.688C102.314 124.512 101.986 124.424 101.623 124.424Z" fill="#EFEFEF"/>
<rect x="116" y="116.7" width="22.8" height="22.8" rx="11.4" stroke="#EFEFEF" stroke-width="1.2"/>
<path d="M124.389 132.217C123.831 132.217 123.331 132.124 122.889 131.936C122.452 131.749 122.104 131.485 121.846 131.145C121.592 130.805 121.456 130.413 121.436 129.967H122.502C122.522 130.229 122.616 130.459 122.784 130.659C122.956 130.858 123.18 131.012 123.458 131.122C123.735 131.227 124.042 131.28 124.377 131.28C124.745 131.28 125.075 131.217 125.368 131.092C125.665 130.963 125.895 130.788 126.059 130.565C126.227 130.338 126.311 130.081 126.311 129.792C126.311 129.479 126.229 129.204 126.065 128.965C125.905 128.727 125.67 128.542 125.362 128.409C125.053 128.276 124.682 128.209 124.249 128.209H123.557V127.284H124.249C124.588 127.284 124.891 127.223 125.157 127.102C125.422 126.981 125.627 126.811 125.772 126.592C125.92 126.374 125.995 126.12 125.995 125.831C125.995 125.553 125.928 125.307 125.795 125.092C125.667 124.877 125.483 124.711 125.245 124.594C125.006 124.473 124.729 124.413 124.413 124.413C124.108 124.413 123.823 124.467 123.557 124.577C123.292 124.686 123.075 124.842 122.907 125.045C122.739 125.245 122.647 125.479 122.631 125.749H121.612C121.631 125.311 121.768 124.922 122.022 124.583C122.276 124.239 122.614 123.973 123.036 123.786C123.458 123.594 123.92 123.499 124.424 123.499C124.948 123.499 125.405 123.602 125.795 123.809C126.19 124.012 126.493 124.288 126.704 124.635C126.915 124.983 127.018 125.362 127.014 125.772C127.018 126.249 126.891 126.657 126.633 126.997C126.375 127.336 126.022 127.569 125.573 127.694V127.752C125.936 127.811 126.25 127.934 126.516 128.122C126.786 128.305 126.991 128.542 127.131 128.831C127.276 129.116 127.346 129.436 127.342 129.792C127.346 130.249 127.219 130.663 126.961 131.034C126.704 131.401 126.348 131.69 125.895 131.901C125.446 132.112 124.944 132.217 124.389 132.217ZM131.163 132.217C130.538 132.217 130.003 132.047 129.558 131.708C129.116 131.368 128.778 130.872 128.544 130.219C128.313 129.567 128.198 128.78 128.198 127.858C128.198 126.948 128.315 126.167 128.55 125.514C128.784 124.858 129.124 124.358 129.569 124.014C130.015 123.67 130.546 123.499 131.163 123.499C131.78 123.499 132.312 123.67 132.757 124.014C133.202 124.358 133.542 124.858 133.776 125.514C134.011 126.167 134.128 126.948 134.128 127.858C134.128 128.78 134.011 129.567 133.776 130.219C133.546 130.872 133.208 131.368 132.763 131.708C132.317 132.047 131.784 132.217 131.163 132.217ZM131.163 131.28C131.569 131.28 131.917 131.147 132.206 130.881C132.495 130.616 132.716 130.227 132.868 129.715C133.02 129.204 133.097 128.584 133.097 127.858C133.097 127.131 133.02 126.51 132.868 125.995C132.716 125.479 132.495 125.086 132.206 124.817C131.917 124.547 131.569 124.413 131.163 124.413C130.757 124.413 130.407 124.547 130.114 124.817C129.825 125.086 129.603 125.479 129.446 125.995C129.294 126.51 129.218 127.131 129.218 127.858C129.218 128.584 129.294 129.204 129.446 129.715C129.599 130.227 129.819 130.616 130.108 130.881C130.401 131.147 130.753 131.28 131.163 131.28Z" fill="#EFEFEF"/>
<rect x="144.8" y="116.7" width="22.8" height="22.8" rx="11.4" stroke="#EFEFEF" stroke-width="1.2"/>
<path d="M154.333 132.217C153.774 132.217 153.274 132.124 152.833 131.936C152.395 131.749 152.047 131.485 151.79 131.145C151.536 130.805 151.399 130.413 151.379 129.967H152.446C152.465 130.229 152.559 130.459 152.727 130.659C152.899 130.858 153.124 131.012 153.401 131.122C153.678 131.227 153.985 131.28 154.321 131.28C154.688 131.28 155.018 131.217 155.311 131.092C155.608 130.963 155.838 130.788 156.002 130.565C156.17 130.338 156.254 130.081 156.254 129.792C156.254 129.479 156.172 129.204 156.008 128.965C155.848 128.727 155.614 128.542 155.305 128.409C154.997 128.276 154.625 128.209 154.192 128.209H153.5V127.284H154.192C154.532 127.284 154.834 127.223 155.1 127.102C155.366 126.981 155.571 126.811 155.715 126.592C155.864 126.374 155.938 126.12 155.938 125.831C155.938 125.553 155.872 125.307 155.739 125.092C155.61 124.877 155.426 124.711 155.188 124.594C154.95 124.473 154.672 124.413 154.356 124.413C154.051 124.413 153.766 124.467 153.5 124.577C153.235 124.686 153.018 124.842 152.85 125.045C152.682 125.245 152.59 125.479 152.575 125.749H151.555C151.575 125.311 151.711 124.922 151.965 124.583C152.219 124.239 152.557 123.973 152.979 123.786C153.401 123.594 153.864 123.499 154.368 123.499C154.891 123.499 155.348 123.602 155.739 123.809C156.133 124.012 156.436 124.288 156.647 124.635C156.858 124.983 156.961 125.362 156.958 125.772C156.961 126.249 156.834 126.657 156.577 126.997C156.319 127.336 155.965 127.569 155.516 127.694V127.752C155.879 127.811 156.194 127.934 156.459 128.122C156.729 128.305 156.934 128.542 157.075 128.831C157.219 129.116 157.29 129.436 157.286 129.792C157.29 130.249 157.163 130.663 156.905 131.034C156.647 131.401 156.292 131.69 155.838 131.901C155.389 132.112 154.887 132.217 154.333 132.217ZM161.329 132.1H160.263V124.717H160.216L158.153 126.088V125.022L160.263 123.616H161.329V132.1Z" fill="#EFEFEF"/>
</svg>
