<svg width="33" height="32" viewBox="0 0 33 32" fill="none" xmlns="http://www.w3.org/2000/svg">
<path d="M20.875 28H12.875V16.8C12.875 16.3582 13.2332 16 13.675 16H20.075C20.5168 16 20.875 16.3582 20.875 16.8V28Z" stroke="#727272" stroke-width="2" stroke-linecap="round" stroke-linejoin="round"/>
<path d="M28.075 28.0002H20.875V24.1335C20.875 23.6917 21.2332 23.3335 21.675 23.3335H28.075C28.5168 23.3335 28.875 23.6917 28.875 24.1335V27.2002C28.875 27.642 28.5168 28.0002 28.075 28.0002Z" stroke="#727272" stroke-width="2" stroke-linecap="round" stroke-linejoin="round"/>
<path d="M12.875 27.9998V21.4665C12.875 21.0247 12.5168 20.6665 12.075 20.6665H5.675C5.23317 20.6665 4.875 21.0247 4.875 21.4665V27.1998C4.875 27.6417 5.23317 27.9998 5.675 27.9998H12.875Z" stroke="#727272" stroke-width="2" stroke-linecap="round" stroke-linejoin="round"/>
<path d="M15.2824 6.81767L16.4945 4.24746C16.6501 3.91751 17.0997 3.91751 17.2553 4.24746L18.4675 6.81767L21.1783 7.23236C21.5261 7.28557 21.6647 7.73303 21.4129 7.98972L19.4517 9.98894L19.9146 12.8133C19.974 13.176 19.6102 13.4526 19.299 13.2813L16.8749 11.9471L14.4508 13.2813C14.1396 13.4526 13.7758 13.176 13.8353 12.8133L14.2981 9.98894L12.3369 7.98972C12.0851 7.73303 12.2238 7.28557 12.5716 7.23236L15.2824 6.81767Z" stroke="#727272" stroke-width="2" stroke-linecap="round" stroke-linejoin="round"/>
</svg>
