<svg width="148" height="136" viewBox="0 0 148 136" fill="none" xmlns="http://www.w3.org/2000/svg">
<path d="M42 76.9721C42.4156 80.6115 41.2609 82.5462 39.36 83.1905C43.98 88.8521 52.56 88.1365 49.26 78.5943C47.5329 79.6027 44.8962 79.4545 42 76.9721Z" fill="#FF0000"/>
<path fill-rule="evenodd" clip-rule="evenodd" d="M12.2534 18.7125C11.7254 20.8245 11.8958 38.7223 12.1158 45.9823C12.4783 45.887 12.8456 45.7954 13.217 45.7073C20.2041 44.0497 28.6268 43.6321 33.0818 43.6321C35.486 43.5971 36.3817 42.3119 38.3617 40.3319C40.3417 38.3519 56.1821 22.5121 60.1417 19.8721C64.1014 17.2321 67.7884 17.0719 68.7217 19.8721C69.6551 22.6722 68.7217 29.1121 65.4217 38.3521C62.1217 47.5921 54.2017 51.5521 46.9417 48.9121C39.6817 46.2721 38.3617 44.9521 36.3817 46.2721C34.4017 47.5921 33.7417 47.5921 31.7617 56.1721C29.7817 64.7521 18.5618 64.0921 14.6018 62.7721C14.0759 62.5968 13.4219 62.4098 12.6894 62.2004L12.6877 62.2L12.6853 62.1993C12.6207 62.1808 12.5554 62.1621 12.4896 62.1433C12.4045 62.119 12.3185 62.0943 12.2315 62.0693C10.998 61.715 9.58518 61.2961 8.20261 60.7669C-1.69739 93.7669 29.7819 105.672 47.6019 101.052C52.2221 94.4521 57.5021 88.5121 64.3932 86.0326C64.3932 65.9427 77.6532 56.3828 90.5 57.2469C92.3557 57.3718 94.2028 57.7141 96 58.2736C99.0409 59.2202 101.939 60.7886 104.495 62.9772C105.804 64.0976 107.022 65.3807 108.125 66.826C110.593 62.2726 111.67 60.2235 112.573 54.3526C113.893 45.7726 111.622 31.6213 106.342 26.3413C101.062 21.0613 94.0932 16.0725 76.9332 17.3926C69.0132 12.9925 52.1172 3.79623 47.8932 2.21223C42.6132 0.232233 40.6332 2.21223 38.6532 4.19223C37.0692 5.77623 34.0332 18.0522 32.7132 23.9922C29.1932 21.7923 21.4932 17.1285 18.8532 16.0725C15.5532 14.7525 12.9134 16.0725 12.2534 18.7125ZM39.36 83.1905C41.2609 82.5462 42.4156 80.6115 42 76.9721C44.8962 79.4545 47.5329 79.6027 49.26 78.5943C52.56 88.1365 43.98 88.8521 39.36 83.1905Z" fill="#AFB8DD"/>
<path d="M72.0219 98.4121C85.8819 93.7921 80.6019 80.5921 64.3932 86.0326C57.5021 88.5121 52.2221 94.4521 47.6019 101.052C47.4509 102.77 47.4122 104.363 47.466 105.839C47.8823 117.267 53.8402 121.736 56.1798 123.49L56.1821 123.492C57.881 124.766 64.3662 126.414 70.7017 126.046C73.5154 125.882 76.2996 125.321 78.6219 124.152C87.4246 119.723 84.2019 106.195 69.3819 112.063C68.5019 110.083 65.9499 103.496 65.4219 100.07C66.5327 99.824 67.4858 99.6068 68.0619 99.4732L72.0219 98.4121Z" fill="#AFB8DD"/>
<path fill-rule="evenodd" clip-rule="evenodd" d="M104.495 62.9772C101.939 60.7886 99.0409 59.2202 96 58.2736C94.2028 57.7141 92.3557 57.3718 90.5 57.2469C77.6532 56.3828 64.3932 65.9427 64.3932 86.0326C80.6019 80.5921 85.8819 93.7921 72.0219 98.4121L68.0619 99.4732C67.4858 99.6068 66.5327 99.824 65.4219 100.07C65.9499 103.496 68.5019 110.083 69.3819 112.063C84.2019 106.195 87.4246 119.723 78.6219 124.152C81.7899 129.432 86.6132 133.553 88.1532 134.213C126.891 135.879 149.587 105.617 145.942 86.0326C140.662 69.5326 128.122 66.826 109.936 69.5326C109.376 68.5747 108.77 67.6725 108.125 66.826C107.022 65.3807 105.804 64.0976 104.495 62.9772ZM86.5417 67.3921C82.5817 64.0921 76.6417 72.0121 75.9817 75.9721C75.3217 79.9321 77.9617 81.2521 81.2617 79.2721C84.5617 77.2921 90.5017 70.6921 86.5417 67.3921Z" fill="#F27575"/>
<path d="M47.6019 101.052C35.0617 108.312 22.5217 117.552 16.5817 118.212C35.0617 118.212 46.0102 108.647 47.466 105.839C47.4122 104.363 47.4509 102.77 47.6019 101.052Z" fill="#D60B0B"/>
<path d="M70.7017 126.046C64.3662 126.414 57.881 124.766 56.1821 123.492L56.1798 123.49C53.8402 121.736 47.8823 117.267 47.466 105.839C46.0102 108.647 35.0617 118.212 16.5817 118.212C25.1617 128.772 58.5401 137.839 70.7017 126.046Z" fill="#B21616"/>
<path d="M75.9817 75.9721C76.6417 72.0121 82.5817 64.0921 86.5417 67.3921C90.5017 70.6921 84.5617 77.2921 81.2617 79.2721C77.9617 81.2521 75.3217 79.9321 75.9817 75.9721Z" fill="#F1D0D0"/>
<path fill-rule="evenodd" clip-rule="evenodd" d="M12.6877 62.2L12.6853 62.1993C12.6207 62.1808 12.5554 62.1621 12.4896 62.1433C12.5562 62.1624 12.6223 62.1813 12.6877 62.2Z" fill="#3F3B3A"/>
<path d="M14.6018 62.7721C18.5618 64.0921 29.7817 64.7521 31.7617 56.1721C33.7417 47.5921 34.4017 47.5921 36.3817 46.2721C38.3617 44.9521 39.6817 46.2721 46.9417 48.9121C54.2017 51.5521 62.1217 47.5921 65.4217 38.3521C68.7217 29.1121 69.6551 22.6722 68.7217 19.8721C67.7884 17.0719 64.1014 17.2321 60.1417 19.8721C56.1821 22.5121 40.3417 38.3519 38.3617 40.3319C36.3817 42.3119 35.486 43.5971 33.0818 43.6321C28.6268 43.6321 20.2041 44.0497 13.217 45.7073C12.8456 45.7954 12.4783 45.887 12.1158 45.9823C7.17448 47.2806 3.13785 49.2529 2.06178 52.2121C0.411115 56.7514 4.1789 59.2266 8.20261 60.7669C9.58518 61.2961 10.998 61.715 12.2315 62.0693L12.4896 62.1433L12.6853 62.1993L12.6877 62.2L12.6894 62.2004C13.4219 62.4098 14.0759 62.5968 14.6018 62.7721Z" fill="black"/>
<path d="M12.1158 45.9823C11.8958 38.7223 11.7254 20.8245 12.2534 18.7125C12.9134 16.0725 15.5532 14.7525 18.8532 16.0725C21.4932 17.1285 29.1932 21.7923 32.7132 23.9922M12.1158 45.9823C7.17448 47.2806 3.13785 49.2529 2.06178 52.2121M12.1158 45.9823C12.4783 45.887 12.8456 45.7954 13.217 45.7073M32.7132 23.9922L31.3932 29.9322M32.7132 23.9922C34.0332 18.0522 37.0692 5.77623 38.6532 4.19223C40.6332 2.21223 42.6132 0.232233 47.8932 2.21223C52.1172 3.79623 69.0132 12.9925 76.9332 17.3926C94.0932 16.0725 101.062 21.0613 106.342 26.3413C111.622 31.6213 113.893 45.7726 112.573 54.3526C111.67 60.2235 110.593 62.2726 108.125 66.826M108.125 66.826C108.77 67.6725 109.376 68.5747 109.936 69.5326M108.125 66.826C107.022 65.3807 105.804 64.0976 104.495 62.9772M64.3932 86.0326C80.6019 80.5921 85.8819 93.7921 72.0219 98.4121L68.0619 99.4732C67.4858 99.6068 66.5327 99.824 65.4219 100.07M64.3932 86.0326C57.5021 88.5121 52.2221 94.4521 47.6019 101.052M64.3932 86.0326C64.3932 65.9427 77.6532 56.3828 90.5 57.2469C92.3557 57.3718 94.2028 57.7141 96 58.2736M113.893 81.4126C113.259 76.7932 111.867 72.8326 109.936 69.5326M109.936 69.5326C128.122 66.826 140.662 69.5326 145.942 86.0326C149.587 105.616 126.891 135.879 88.1532 134.213C86.6132 133.553 81.7899 129.432 78.6219 124.152M109.936 69.5326C108.419 66.9393 106.57 64.7539 104.495 62.9772M78.6219 124.152C87.8039 119.532 83.9019 105.012 67.4019 112.932M78.6219 124.152C76.2996 125.321 73.5154 125.882 70.7017 126.046M78.6219 124.152C87.4246 119.723 84.2019 106.195 69.3819 112.063C68.5019 110.083 65.9499 103.496 65.4219 100.07M60.8019 101.052C62.2898 100.755 63.9873 100.388 65.4219 100.07M47.6019 101.052C29.7819 105.672 -1.69739 93.7669 8.20261 60.7669M47.6019 101.052C35.0617 108.312 22.5217 117.552 16.5817 118.212M47.6019 101.052C47.4509 102.77 47.4122 104.363 47.466 105.839M8.20261 60.7669C4.1789 59.2266 0.411115 56.7514 2.06178 52.2121M8.20261 60.7669C9.58518 61.2961 10.998 61.715 12.2315 62.0693M2.06178 52.2121C-0.156065 58.3112 7.40789 60.6839 12.2315 62.0693M2.06178 52.2121C3.21678 49.0358 7.78264 46.9965 13.217 45.7073M56 58.5C51.9817 61.5694 48.5 66.5 48.5 66.5C48.5 66.5 55 64 59 63M23 76C28 73.5 31 74 31 74C31 74 27.5 76.9721 25.5 80M35.4 83.0726C36.8663 83.5019 38.2422 83.5693 39.36 83.1905M51.24 75.8126C50.9937 76.984 50.288 77.9941 49.26 78.5943M39.36 83.1905C41.2609 82.5462 42.4156 80.6115 42 76.9721C44.8962 79.4545 47.5329 79.6027 49.26 78.5943M39.36 83.1905C43.98 88.8521 52.56 88.1365 49.26 78.5943M16.5817 118.212C25.1617 128.772 58.5401 137.839 70.7017 126.046M16.5817 118.212C35.0617 118.212 46.0102 108.647 47.466 105.839M70.7017 126.046C64.3662 126.414 57.881 124.766 56.1821 123.492L56.1798 123.49C53.8402 121.736 47.8823 117.267 47.466 105.839M13.217 45.7073C20.2041 44.0497 28.6268 43.6321 33.0818 43.6321C35.486 43.5971 36.3817 42.3119 38.3617 40.3319C40.3417 38.3519 56.1821 22.5121 60.1417 19.8721C64.1014 17.2321 67.7884 17.0719 68.7217 19.8721C69.6551 22.6722 68.7217 29.1121 65.4217 38.3521C62.1217 47.5921 54.2017 51.5521 46.9417 48.9121C39.6817 46.2721 38.3617 44.9521 36.3817 46.2721C34.4017 47.5921 33.7417 47.5921 31.7617 56.1721C29.7817 64.7521 18.5618 64.0921 14.6018 62.7721C14.0759 62.5968 13.4219 62.4098 12.6894 62.2004L12.6877 62.2M12.2315 62.0693C12.3185 62.0943 12.4045 62.119 12.4896 62.1433M12.2315 62.0693L12.4896 62.1433M104.495 62.9772C101.939 60.7886 99.0409 59.2202 96 58.2736M12.6877 62.2L12.6853 62.1993M12.6877 62.2C12.6223 62.1813 12.5562 62.1624 12.4896 62.1433M12.6853 62.1993C12.6207 62.1808 12.5554 62.1621 12.4896 62.1433M12.6853 62.1993L12.4896 62.1433M82.5 50C82.5 50 89.5 41.8319 99 36.5M104.495 53C100 55 96 58.2736 96 58.2736M75.9817 75.9721C76.6417 72.0121 82.5817 64.0921 86.5417 67.3921C90.5017 70.6921 84.5617 77.2921 81.2617 79.2721C77.9617 81.2521 75.3217 79.9321 75.9817 75.9721Z" stroke="#3F3B3A" stroke-width="2" stroke-linecap="round" stroke-linejoin="round"/>
<path d="M62.1218 28.4525L60.8018 29.1125L62.1218 21.8525L62.7818 26.4725L64.1018 25.8125L63.4418 33.0725L62.1218 28.4525Z" fill="white"/>
<path d="M26.4816 52.2123L25.1616 52.8723L26.4816 45.6123L27.1416 50.2323L28.4616 49.5723L27.8016 56.8323L26.4816 52.2123Z" fill="white"/>
</svg>
